<svg xmlns="http://www.w3.org/2000/svg" viewBox="0 0 64 64" width="64" height="64">
  <defs>
    <linearGradient id="goldGIS" x1="0%" y1="0%" x2="100%" y2="100%">
      <stop offset="0%" style="stop-color:#F59E0B" />
      <stop offset="100%" style="stop-color:#D97706" />
    </linearGradient>
    <radialGradient id="irisGIS" cx="50%" cy="50%" r="50%">
      <stop offset="0%" style="stop-color:#F59E0B;stop-opacity:0.9" />
      <stop offset="55%" style="stop-color:#D97706;stop-opacity:0.5" />
      <stop offset="100%" style="stop-color:#0F172A;stop-opacity:0.8" />
    </radialGradient>
  </defs>

  <!-- Outer glow -->
  <path d="M4,32 Q32,6 60,32" fill="none" stroke="#F59E0B" stroke-width="1.2" opacity="0.12"/>
  <path d="M4,32 Q32,58 60,32" fill="none" stroke="#F59E0B" stroke-width="1.2" opacity="0.12"/>

  <!-- Eye lids -->
  <path d="M6,32 Q32,8 58,32" fill="none" stroke="url(#goldGIS)" stroke-width="3" stroke-linecap="round"/>
  <path d="M6,32 Q32,56 58,32" fill="none" stroke="url(#goldGIS)" stroke-width="3" stroke-linecap="round"/>

  <!-- Iris -->
  <circle cx="32" cy="32" r="14" fill="none" stroke="#D97706" stroke-width="1.2" opacity="0.4"/>
  <circle cx="32" cy="32" r="12" fill="url(#irisGIS)" opacity="0.35"/>

  <!-- Pupil -->
  <circle cx="32" cy="32" r="8" fill="#020617"/>
  <circle cx="32" cy="32" r="8" fill="none" stroke="#D97706" stroke-width="0.5" opacity="0.3"/>

  <!-- Light reflections -->
  <circle cx="37" cy="27" r="2.5" fill="#F8FAFC" opacity="0.5"/>
  <circle cx="27" cy="37" r="1" fill="#F8FAFC" opacity="0.2"/>

  <!-- AI sparkle -->
  <path d="M32,24 L34,29.5 L40,32 L34,34.5 L32,40 L30,34.5 L24,32 L30,29.5 Z" fill="#F59E0B"/>
  <path d="M32,27 L33,30.5 L36,32 L33,33.5 L32,37 L31,33.5 L28,32 L31,30.5 Z" fill="#FBBF24" opacity="0.6"/>
</svg>
